<svg xmlns="http://www.w3.org/2000/svg"  viewBox="0 0 50 50" width="50px" height="50px"><path d="M 22 5.9453125 L 21.5 6.234375 L 10.5 12.583984 L 10.267578 12.71875 L 10.134766 12.949219 L 7.2675781 17.917969 L 3.5 20.09375 L 3.2675781 20.228516 L 3.1347656 20.460938 L 1.1347656 23.919922 L 0.90429688 24.316406 L 1.0546875 24.748047 L 3.0546875 30.527344 L 3.1757812 30.880859 L 3.5 31.066406 L 8.5 33.947266 L 9 34.234375 L 9.5 33.945312 L 15 30.773438 L 17.5 32.216797 L 17.634766 32.292969 L 17.134766 33.158203 L 16.904297 33.554688 L 17.054688 33.986328 L 19.054688 39.757812 L 19.177734 40.109375 L 19.498047 40.294922 L 24.498047 43.185547 L 24.998047 43.474609 L 25.498047 43.185547 L 30.998047 40.013672 L 33.498047 41.455078 L 33.998047 41.744141 L 34.498047 41.455078 L 45.498047 35.105469 L 45.730469 34.972656 L 45.865234 34.740234 L 48.865234 29.539062 L 49.09375 29.144531 L 48.943359 28.712891 L 45.943359 20.052734 L 45.822266 19.699219 L 45.5 19.513672 L 38.5 15.474609 L 38.001953 15.185547 L 37.501953 15.472656 L 36.001953 16.335938 L 30.822266 13.349609 L 29.945312 10.8125 L 29.822266 10.460938 L 29.5 10.273438 L 22.5 6.234375 L 22 5.9453125 z M 22 7.3886719 L 28.5 11.140625 L 18 17.205078 L 11.498047 13.451172 L 22 7.3886719 z M 28.863281 11.507812 L 29.697266 13.917969 L 19.136719 20.013672 L 18.304688 17.607422 L 28.863281 11.507812 z M 11.091797 13.791016 L 17.794922 17.664062 L 18.763672 20.462891 A 0.250025 0.250025 0 0 0 18.875 20.597656 L 25.875 24.638672 A 0.250025 0.250025 0 0 0 26.216797 24.548828 L 27.091797 23.033203 L 33.794922 26.902344 L 36.726562 35.365234 L 33.908203 40.248047 L 31.5 38.859375 L 33.125 37.917969 A 0.250025 0.250025 0 0 0 33.216797 37.826172 L 35.216797 34.363281 A 0.250025 0.250025 0 0 0 35.236328 34.15625 L 33.236328 28.382812 A 0.250025 0.250025 0 0 0 33.125 28.248047 L 28.125 25.361328 A 0.250025 0.250025 0 0 0 28.005859 25.326172 A 0.250025 0.250025 0 0 0 27.875 25.361328 L 24.001953 27.599609 L 21.125 25.939453 A 0.250025 0.250025 0 0 0 21.005859 25.904297 A 0.250025 0.250025 0 0 0 20.783203 26.029297 L 17.908203 31.007812 L 15.5 29.621094 L 17.125 28.679688 A 0.250025 0.250025 0 0 0 17.216797 28.589844 L 19.216797 25.125 A 0.250025 0.250025 0 0 0 19.236328 24.917969 L 17.236328 19.144531 A 0.250025 0.250025 0 0 0 17.125 19.009766 L 12.125 16.123047 A 0.250025 0.250025 0 0 0 11.980469 16.089844 A 0.250025 0.250025 0 0 0 11.875 16.123047 L 8.6835938 17.966797 L 11.091797 13.791016 z M 30 14.318359 L 35.5 17.490234 L 26.886719 22.46875 L 26.875 22.474609 A 0.250025 0.250025 0 0 0 26.783203 22.566406 L 25.908203 24.082031 L 19.5 20.380859 L 30 14.318359 z M 12 16.628906 L 16.5 19.226562 L 9 23.556641 L 4.4980469 20.960938 L 8.125 18.867188 L 8.1464844 18.853516 L 12 16.628906 z M 38 16.628906 L 44.5 20.380859 L 34 26.443359 L 27.5 22.691406 L 36.113281 17.712891 L 36.115234 17.712891 A 0.250025 0.250025 0 0 0 36.125 17.707031 L 38 16.628906 z M 16.863281 19.59375 L 18.695312 24.886719 L 11.136719 29.25 L 9.3027344 23.957031 L 16.863281 19.59375 z M 44.863281 20.746094 L 47.697266 28.927734 L 37.136719 35.023438 L 34.304688 26.845703 L 44.863281 20.746094 z M 4.0917969 21.302734 L 8.7949219 24.015625 L 10.726562 29.59375 L 8.9082031 32.738281 L 4.2050781 30.029297 L 2.2734375 24.445312 L 4.0917969 21.302734 z M 4.9804688 22.441406 A 0.250025 0.250025 0 0 0 4.7871094 22.558594 L 3.2070312 25.111328 A 0.250025 0.250025 0 0 0 3.1855469 25.326172 L 4.765625 29.703125 A 0.250025 0.250025 0 0 0 4.875 29.835938 L 7.875 31.568359 A 0.250025 0.250025 0 0 0 8.2167969 31.476562 L 9.7148438 28.876953 A 0.250025 0.250025 0 0 0 9.734375 28.669922 L 8.2363281 24.341797 A 0.250025 0.250025 0 0 0 8.125 24.207031 L 5.125 22.474609 A 0.250025 0.250025 0 0 0 4.9804688 22.441406 z M 5.0839844 23.029297 L 7.7949219 24.59375 L 9.2246094 28.726562 L 7.9082031 31.009766 L 5.2050781 29.447266 L 3.6953125 25.271484 L 5.0839844 23.029297 z M 18.316406 25.683594 L 16.816406 28.28125 L 14.898438 29.392578 A 0.250025 0.250025 0 0 0 14.875 29.404297 L 9.6855469 32.396484 L 11.183594 29.802734 L 18.316406 25.683594 z M 28 25.865234 L 32.5 28.464844 L 25 32.794922 L 20.498047 30.199219 L 28 25.865234 z M 21.091797 26.496094 L 23.501953 27.888672 L 19.902344 29.96875 L 19.896484 29.972656 A 0.250025 0.250025 0 0 0 19.880859 29.980469 A 0.250025 0.250025 0 0 0 19.875 29.982422 L 18.683594 30.667969 L 21.091797 26.496094 z M 32.863281 28.830078 L 34.697266 34.125 L 27.136719 38.488281 L 25.302734 33.195312 L 32.863281 28.830078 z M 47.318359 29.722656 L 44.816406 34.056641 L 34.683594 39.90625 L 37.183594 35.576172 L 47.318359 29.722656 z M 20.091797 30.541016 L 24.794922 33.253906 L 26.726562 38.830078 L 24.908203 41.978516 L 20.205078 39.259766 L 18.273438 33.685547 L 20.091797 30.541016 z M 20.980469 31.677734 A 0.250025 0.250025 0 0 0 20.787109 31.796875 L 19.207031 34.347656 A 0.250025 0.250025 0 0 0 19.185547 34.564453 L 20.765625 38.941406 A 0.250025 0.250025 0 0 0 20.875 39.072266 L 23.875 40.804688 A 0.250025 0.250025 0 0 0 24.216797 40.712891 L 25.714844 38.115234 A 0.250025 0.250025 0 0 0 25.734375 37.908203 L 24.236328 33.578125 A 0.250025 0.250025 0 0 0 24.125 33.443359 L 21.125 31.710938 A 0.250025 0.250025 0 0 0 21.005859 31.677734 A 0.250025 0.250025 0 0 0 20.980469 31.677734 z M 21.085938 32.265625 L 23.794922 33.830078 L 25.224609 37.964844 L 23.908203 40.246094 L 21.205078 38.685547 L 19.695312 34.509766 L 21.085938 32.265625 z M 34.316406 34.921875 L 32.816406 37.519531 L 30.898438 38.630859 A 0.250025 0.250025 0 0 0 30.875 38.642578 L 25.683594 41.636719 L 27.183594 39.039062 L 34.316406 34.921875 z"/></svg>